<svg xmlns="http://www.w3.org/2000/svg" width="24" height="24" viewBox="0 0 1024 1024" fill="currentColor">
<g>
<path fill="currentColor" d="M 483.18 921.50 C467.60,891.00 455.12,865.62 455.44,865.10 C456.18,863.90 470.94,860.43 484.21,858.34 C498.68,856.05 529.02,856.04 543.50,858.31 C554.53,860.04 568.67,863.33 569.77,864.44 C570.09,864.76 567.26,870.98 563.47,878.26 C559.69,885.54 552.29,899.83 547.04,910.02 C541.79,920.21 531.88,939.44 525.01,952.77 C518.13,966.10 512.28,976.99 512.01,976.98 C511.73,976.96 498.75,952.00 483.18,921.50 ZM 564.12 857.30 C540.21,849.72 503.06,849.05 466.03,855.53 C458.62,856.83 452.46,857.79 452.33,857.66 C451.87,857.20 447.74,836.77 432.00,757.00 C413.18,661.71 387.25,530.39 375.99,473.50 C371.64,451.50 365.35,419.55 362.01,402.50 C358.66,385.45 355.67,370.21 355.36,368.64 L 354.79 365.78 L 360.15 366.52 C385.48,369.98 407.62,385.59 418.63,407.75 C420.06,410.64 421.31,413.00 421.40,413.00 C421.49,413.00 426.73,409.61 433.03,405.47 C462.67,386.00 485.73,377.94 511.94,377.88 C537.94,377.82 563.15,386.47 590.76,404.92 L 602.80 412.97 L 615.20 400.70 C628.76,387.29 641.90,376.88 652.00,371.57 C658.43,368.19 667.59,365.26 668.60,366.26 C669.06,366.72 660.56,410.52 618.50,624.50 C606.62,684.96 593.44,752.11 580.44,818.50 C576.24,839.95 572.51,857.98 572.15,858.57 C571.71,859.30 569.11,858.88 564.12,857.30 ZM 538.91 444.02 C549.33,441.89 559.70,438.59 567.39,434.96 L 572.28 432.65 L 570.00 430.80 C566.06,427.61 551.81,420.31 544.35,417.66 C523.57,410.27 501.45,410.21 480.09,417.47 C472.37,420.10 458.86,426.94 454.44,430.47 L 451.73 432.63 L 461.61 436.43 C473.84,441.12 487.89,444.75 498.46,445.96 C509.53,447.22 527.43,446.36 538.91,444.02 ZM 434.47 825.81 C430.99,815.26 421.36,793.31 414.81,781.00 C389.89,734.19 355.34,689.24 307.55,641.46 C260.06,593.98 205.48,549.58 146.00,510.04 C135.82,503.28 127.07,497.36 126.55,496.87 C126.01,496.37 176.72,496.00 244.83,496.00 C339.35,496.00 364.14,496.26 364.44,497.25 C364.65,497.94 368.72,516.50 373.49,538.50 C378.25,560.50 385.69,594.70 390.02,614.50 C394.35,634.30 406.49,689.88 416.99,738.00 C427.49,786.12 436.54,827.23 437.10,829.35 C439.03,836.59 437.21,834.14 434.47,825.81 ZM 585.58 830.50 C585.91,828.85 589.49,812.42 593.52,794.00 C597.56,775.58 612.36,707.85 626.41,643.50 C640.47,579.15 653.44,519.75 655.25,511.50 L 658.53 496.50 L 777.26 496.25 C842.57,496.11 896.00,496.33 896.00,496.75 C896.00,497.16 891.39,500.43 885.75,504.00 C872.14,512.63 845.15,531.56 826.01,545.90 C731.85,616.45 656.96,695.08 615.94,766.50 C607.48,781.22 595.06,807.17 590.57,819.50 C586.17,831.59 584.68,834.87 585.58,830.50 ZM 354.58 361.86 C352.48,349.00 350.79,329.65 350.32,313.00 C348.73,257.36 362.95,212.99 392.54,181.20 C420.17,151.51 459.76,134.16 504.00,132.35 C578.24,129.31 639.21,167.48 662.96,231.88 C671.00,253.70 674.41,276.32 674.29,307.00 C674.21,327.94 671.44,360.86 669.50,364.00 C668.53,365.57 653.89,365.18 648.79,363.45 C635.98,359.08 628.09,343.93 628.00,323.50 C627.96,314.03 624.95,300.07 620.69,289.62 C606.05,253.72 558.28,225.63 512.00,225.72 C479.92,225.79 444.84,240.20 422.59,262.45 C405.82,279.21 399.12,295.03 396.53,324.00 C394.95,341.70 393.27,347.80 388.14,354.53 C382.60,361.77 376.76,364.36 364.84,364.84 L 355.13 365.23 L 354.58 361.86 Z"/>
</g>
</svg>